<svg width="50" height="50" viewBox="0 0 50 50" fill="none" xmlns="http://www.w3.org/2000/svg">
<path d="M49.7592 35.0107C49.2696 33.6381 48.2662 32.5705 46.9337 31.9846C45.6012 31.3986 44.1323 31.3906 42.7918 31.9605L33.8016 35.7572C33.8097 35.6529 33.8177 35.5325 33.8177 35.4201C33.8177 33.6702 32.3969 32.2495 30.647 32.2495H24.1612C23.8963 32.2495 23.6395 32.1933 23.3987 32.0809L17.9002 29.6005C17.0413 29.2072 16.0861 28.9985 15.1389 28.9985H10.4833V28.549C10.4833 27.666 9.76895 26.9436 8.87787 26.9436H0V47.2037H8.87787C9.76895 47.2037 10.4833 46.4813 10.4833 45.5983V44.3381H13.0599L22.6522 47.4204C23.4468 47.6692 24.2656 47.7977 25.0923 47.7977C26.3928 47.7977 27.693 47.4846 28.849 46.8666L50 35.6609L49.7592 35.0107ZM5.64298 44.2257C5.02488 44.2257 4.51928 43.72 4.51928 43.1019C4.51928 42.4758 5.02488 41.9701 5.64298 41.9701C6.26107 41.9701 6.76677 42.4758 6.76677 43.1019C6.76677 43.72 6.26107 44.2257 5.64298 44.2257ZM28.1024 45.4458C26.5854 46.2565 24.7793 46.409 23.1418 45.8873L13.4292 42.7648L10.4833 42.7327V30.6039H15.1389C15.8613 30.6039 16.5838 30.7645 17.234 31.0615L22.7324 33.5498C23.182 33.7505 23.6636 33.8549 24.1612 33.8549H30.647C31.5139 33.8549 32.2123 34.5612 32.2123 35.4201C32.2123 36.287 31.5139 36.9853 30.647 36.9853H22.2508V38.5907H30.647C31.233 38.5907 31.7788 38.4382 32.2444 38.1573L43.4179 33.4374C44.349 33.0441 45.3684 33.0522 46.2916 33.4535C46.9979 33.7665 47.5758 34.2803 47.9611 34.9304L28.1024 45.4458Z" fill="white"/>
<path d="M7.27131 23.7069L12.2703 20.9373L17.1657 23.8864L16.0764 18.2762L19.6682 15.1612L18.3421 20.8746C18.27 21.1835 18.3868 21.5057 18.64 21.6969C18.894 21.8882 19.2349 21.9121 19.5124 21.7581L25.0694 18.6802L30.5095 21.9576C30.7719 22.1171 31.1164 22.1145 31.3836 21.9278C31.643 21.7463 31.7716 21.4285 31.7112 21.1173L30.5009 14.8819L30.6152 14.7828L34.2138 18.1399L32.9216 23.7069L37.9207 20.9373L42.8159 23.8864L41.7267 18.2762L46.0442 14.5318L40.372 13.8341L38.145 8.57086L35.7286 13.7499L31.3726 14.1259L35.2999 10.7202C35.5397 10.5125 35.6338 10.1833 35.5413 9.87989C35.4488 9.57653 35.187 9.35587 34.8719 9.31706L28.5671 8.5418L26.0924 2.69208C25.9685 2.40008 25.6847 2.20803 25.368 2.20215C25.3626 2.20215 25.3579 2.20215 25.3531 2.20215C25.0419 2.20215 24.7574 2.38245 24.6257 2.66542L21.9401 8.42148L15.6118 8.96784C14.9235 9.02677 14.6238 9.8774 15.1329 10.3545L19.4924 14.4209L14.7216 13.8341L12.4947 8.57085L10.0784 13.7499L4.38446 14.2414L8.56334 18.1399L7.27131 23.7069ZM22.5406 9.98102C22.8267 9.95633 23.0775 9.78113 23.199 9.52088L25.3171 4.98023L27.2697 9.59456C27.3818 9.85912 27.6264 10.0433 27.911 10.0786L32.8839 10.69L29.0985 13.9729C28.8814 14.1611 28.7818 14.4503 28.8367 14.7321L29.7915 19.651L25.4997 17.0657C25.2525 16.9162 24.9444 16.9131 24.697 17.0512L20.3136 19.4793L21.4463 14.5985C21.5113 14.319 21.422 14.0259 21.2127 13.8299L17.548 10.4118L22.5406 9.98102Z" fill="white"/>
</svg>
