<svg width="50" height="50" viewBox="0 0 50 50" fill="none" xmlns="http://www.w3.org/2000/svg">
<path d="M40.6255 15.3597C42.5477 12.1189 40.1206 8.06165 36.4439 8.11334C36.4919 4.41172 32.4247 1.99305 29.1898 3.93129C28.343 2.43707 26.7545 1.4834 24.9967 1.4834C23.245 1.4834 21.6596 2.43516 20.812 3.92595C17.5699 1.99463 13.51 4.41684 13.558 8.11334C9.87032 8.06757 7.46049 12.1065 9.38238 15.3578C7.88855 16.199 6.93488 17.7847 6.93488 19.5456C6.93488 21.308 7.8855 22.8953 9.37628 23.7387C7.49975 26.8917 9.72899 30.9844 13.5595 30.9844C13.5496 32.0569 13.9188 33.1132 14.589 33.9771C14.5848 33.9761 14.5804 33.9754 14.5763 33.9745C11.9903 37.8104 9.19346 41.5604 7.63878 45.7635C7.6075 45.8261 7.67002 45.8807 7.72471 45.8417C9.49816 44.8182 11.4278 43.8495 13.4435 42.912C13.4825 42.8964 13.5294 42.912 13.5294 42.9588C13.881 44.7557 14.3028 46.5839 14.8888 48.4745C14.9044 48.5292 14.9903 48.5292 15.0138 48.4823C16.591 44.2329 19.4277 40.4408 22.0334 36.5774C23.2721 37.5451 24.9089 37.9331 26.5815 37.3449C29.0423 40.9443 31.6084 44.5123 33.0841 48.4823C33.0997 48.5292 33.1856 48.5292 33.2013 48.4745C33.7872 46.5839 34.2169 44.7557 34.5606 42.9588C34.5606 42.912 34.6153 42.8964 34.6466 42.912C36.67 43.8495 38.5997 44.8182 40.3731 45.8417C40.42 45.8807 40.4825 45.8261 40.4591 45.7635C39.0343 41.9664 36.617 38.5294 34.2484 35.0678C35.6448 34.1568 36.4627 32.6163 36.4431 30.984C40.1315 31.0577 42.5516 26.9518 40.6294 23.7368C43.8768 21.8967 43.8785 17.1954 40.6255 15.3597ZM39.2919 22.6313L38.8937 22.7194C38.8477 22.9486 38.4369 23.4647 38.9066 24.0264C40.9822 26.3252 38.8937 29.999 35.8343 29.3528C35.0908 29.1683 34.7948 29.932 34.6403 30.0704L34.8264 30.4453C35.3932 33.5191 31.7457 35.5073 29.4561 33.4361C28.9169 32.9848 28.3398 33.4281 28.1583 33.4674L28.0775 33.8538C27.0449 36.8142 22.902 36.7374 21.9175 33.8511L21.8267 33.4529L21.401 33.2942C21.1095 33.1858 20.7853 33.2449 20.5266 33.462C19.2656 34.5937 17.1852 34.625 15.917 33.1591C15.2578 32.3962 14.9862 31.3662 15.1853 30.3965C15.2631 30.1264 15.2021 29.8335 15.0136 29.6172L14.5986 29.2067L14.1477 29.357C11.0962 29.9733 9.01513 26.332 11.1166 24.0027C11.318 23.7608 11.376 23.432 11.2684 23.1444L11.0631 22.6824L10.6794 22.6206C9.37171 22.1632 8.49738 20.9353 8.49738 19.5456C8.49738 18.1418 9.39613 16.902 10.7404 16.4591C11.4065 16.2338 11.3154 15.5334 11.3698 15.3784L11.0975 15.0755C8.99927 12.735 11.1643 9.0981 14.1668 9.74678C14.9105 9.93041 15.2113 9.15602 15.3615 9.0197L15.1754 8.6451C14.6204 5.64795 18.2101 3.56705 20.5266 5.64675L20.6144 5.71427C20.8639 5.88174 21.1736 5.91188 21.446 5.79323L21.8732 5.5758L21.9305 5.2218C22.3966 3.91756 23.6211 3.0459 24.9967 3.0459C26.3929 3.0459 27.6311 3.93854 28.0851 5.2691L28.1728 5.63837C28.3771 5.69128 28.8549 6.08299 29.3882 5.72305L29.4775 5.65363C30.525 4.7072 32.0432 4.54622 33.2578 5.25308C34.4503 5.94735 35.0874 7.35841 34.8173 8.69623C34.6263 9.35709 35.258 9.68991 35.4055 9.8948L35.8579 9.74184C38.8873 9.1127 40.9628 12.7783 38.9341 15.0446C38.4369 15.5418 38.8293 16.1394 38.8517 16.3237L39.2682 16.461C42.2342 17.4384 42.2461 21.6321 39.2919 22.6313Z" fill="white"/>
<path d="M24.9981 8.56055C18.9278 8.56055 14.006 13.4824 14.006 19.5527C14.006 25.623 18.9278 30.5449 24.9981 30.5449C31.0685 30.5449 35.9982 25.623 35.9982 19.5527C35.9982 13.4824 31.0685 8.56055 24.9981 8.56055ZM32.0763 17.9511L28.6153 21.3652C28.5997 21.3808 28.5997 21.3965 28.5997 21.4121L29.4513 26.2011C29.4591 26.2481 29.4201 26.2715 29.381 26.2558L25.0607 24.0137C25.045 24.0058 25.0294 24.0058 25.0138 24.0137L20.7169 26.3105C20.6856 26.3262 20.6388 26.2949 20.6466 26.2558L21.4435 21.4512C21.4435 21.4355 21.4356 21.4199 21.4278 21.4121L17.92 18.0371C17.8966 18.0058 17.9044 17.959 17.9513 17.9511L22.7638 17.2246C22.7794 17.2168 22.7872 17.209 22.795 17.1933L24.9279 12.8184C24.9435 12.7793 24.9981 12.7793 25.0138 12.8184L27.1935 17.1699C27.2013 17.1855 27.2169 17.1933 27.2325 17.1933L32.0529 17.8652C32.0919 17.873 32.1075 17.9199 32.0763 17.9511Z" fill="white"/>
</svg>
