<svg width="44" height="50" viewBox="0 0 44 50" fill="none" xmlns="http://www.w3.org/2000/svg">
<path d="M42.2363 49.9705C42.8403 49.9705 43.3412 49.4697 43.3412 48.8656V13.1703C43.3412 13.1556 43.3412 13.1261 43.3412 13.1114C43.3412 12.8167 43.2233 12.5368 43.0318 12.3453L32.7342 0.39776L32.7195 0.383029C32.7195 0.383029 32.7195 0.383029 32.7048 0.368297C32.6753 0.324101 32.6311 0.294638 32.6017 0.265174C32.6017 0.265174 32.6017 0.265173 32.5869 0.250442C32.5427 0.220978 32.5133 0.191514 32.4691 0.16205L32.4543 0.147319C32.3659 0.0883913 32.2776 0.0589271 32.1744 0.0294633H32.1597C32.0713 0.0147314 31.9829 0 31.8945 0H1.10489C0.500884 0 0 0.500884 0 1.10489V48.8951C0 49.4991 0.500884 50 1.10489 50H42.2363V49.9705ZM32.9994 4.05127L39.835 11.9917H32.9994V4.05127ZM2.20978 2.18032H30.7896V13.0966C30.7896 13.7006 31.2905 14.2015 31.8945 14.2015H41.1461V47.746H2.20978V2.18032Z" fill="white"/>
<path d="M11.0342 26.311C7.92575 26.311 5.4066 28.8302 5.4066 31.9386C5.4066 33.3087 5.89275 34.5609 6.71774 35.5332V43.6947C6.71774 44.1071 6.95345 44.4902 7.32175 44.6817C7.69004 44.8732 8.132 44.8437 8.47083 44.5933L11.0489 42.7518L13.6123 44.5933C13.8038 44.7259 14.0247 44.7995 14.2605 44.7995C14.4372 44.7995 14.5993 44.7553 14.7613 44.6817C15.1296 44.4902 15.3654 44.1071 15.3654 43.6947V35.5332C16.1756 34.5609 16.6765 33.3087 16.6765 31.9386C16.6618 28.8449 14.1426 26.311 11.0342 26.311ZM11.0342 28.5208C12.9199 28.5208 14.452 30.0529 14.452 31.9386C14.452 33.8243 12.9199 35.3564 11.0342 35.3564C10.0913 35.3564 9.22216 34.9734 8.60342 34.3399C8.60342 34.3399 8.60342 34.3399 8.58869 34.3252C7.98468 33.7064 7.61638 32.8667 7.61638 31.9386C7.61638 30.0529 9.1485 28.5208 11.0342 28.5208ZM11.6824 40.4831C11.2994 40.2032 10.7837 40.2032 10.386 40.4831L8.91279 41.5438V37.1537C9.56099 37.4189 10.2829 37.5662 11.0194 37.5662C11.7708 37.5662 12.4779 37.4189 13.1261 37.1537V41.5438L11.6824 40.4831Z" fill="white"/>
<path d="M6.92398 8.83918H11.0342C11.6382 8.83918 12.1391 8.33829 12.1391 7.73429C12.1391 7.13028 11.6382 6.62939 11.0342 6.62939H6.92398C6.31998 6.62939 5.81909 7.13028 5.81909 7.73429C5.81909 8.33829 6.31998 8.83918 6.92398 8.83918Z" fill="white"/>
<path d="M22.805 11.3435H6.92398C6.31998 11.3435 5.81909 11.8444 5.81909 12.4484C5.81909 13.0524 6.31998 13.5533 6.92398 13.5533H22.805C23.409 13.5533 23.9098 13.0524 23.9098 12.4484C23.9098 11.8444 23.409 11.3435 22.805 11.3435Z" fill="white"/>
<path d="M22.805 16.0725H6.92398C6.31998 16.0725 5.81909 16.5734 5.81909 17.1774C5.81909 17.7814 6.31998 18.2823 6.92398 18.2823H22.805C23.409 18.2823 23.9098 17.7814 23.9098 17.1774C23.9098 16.5734 23.409 16.0725 22.805 16.0725Z" fill="white"/>
</svg>
